<?xml version="1.0" encoding="UTF-8" standalone="no"?>
<svg
   xmlns:dc="http://purl.org/dc/elements/1.1/"
   xmlns:cc="http://creativecommons.org/ns#"
   xmlns:rdf="http://www.w3.org/1999/02/22-rdf-syntax-ns#"
   xmlns:svg="http://www.w3.org/2000/svg"
   xmlns="http://www.w3.org/2000/svg"
   viewBox="0 0 400 200"
   height="200"
   width="400"
   id="svg3713"
   version="1.1">
  <metadata
     id="metadata3719">
    <rdf:RDF>
      <cc:Work
         rdf:about="">
        <dc:format>image/svg+xml</dc:format>
        <dc:type
           rdf:resource="http://purl.org/dc/dcmitype/StillImage" />
        <dc:title></dc:title>
      </cc:Work>
    </rdf:RDF>
  </metadata>
  <defs
     id="defs3717" />
  <path
     d="m 87.477707,21.4895 c -1.344165,-0.02489 -2.694843,0.0668 -4.1875,0.263672 -4.62122,0.60951 -6.598646,1.185169 -10.134766,2.949219 -6.50861,3.2469 -10.788674,7.551738 -13.933594,14.017578 -2.2903,4.70876 -2.986962,7.894059 -2.976562,13.599609 0.0047,2.57311 0.169193,5.138666 0.371094,5.759766 0.200248,0.616 0.670251,2.149743 1.044921,3.408203 0.37467,1.25846 1.23326,3.347085 1.90625,4.640625 0.67299,1.29354 6.999677,13.929708 14.060547,28.080078 7.2321,14.49351 12.956455,25.60166 13.109375,25.43945 0.6109,-0.648 28.454768,-56.730808 28.898438,-58.207028 0.26447,-0.88 0.67833,-2.249015 0.91992,-3.041016 0.6006,-1.968879 0.60054,-10.829418 0,-12.798828 -0.24151,-0.792 -0.73001,-2.368603 -1.08594,-3.501953 -2.83456,-9.0256 -11.35714,-17.035693 -20.71484,-19.470703 -2.816906,-0.733 -5.037069,-1.097182 -7.277343,-1.138672 z m -0.720704,15.859375 c 0.700531,0.0039 1.400567,0.13458 2.638672,0.396485 3.26766,0.69123 5.955118,2.145648 8.117188,4.392578 4.792847,4.98098 5.684787,12.406022 2.1875,18.195312 -2.04885,3.3916 -4.822316,5.58135 -8.785156,6.9375 -6.69933,2.29262 -14.831316,-1.366367 -17.978516,-8.091797 -2.78155,-5.94403 -1.614851,-12.615579 3.011719,-17.224609 2.38649,-2.37745 4.591626,-3.522441 8.167969,-4.238281 1.239784,-0.248155 1.940097,-0.371075 2.640624,-0.367188 z m -29.33789,36.455078 c -0.498795,0.02948 -1.142235,0.140582 -2.025391,0.271485 -1.977991,0.29318 -8.137755,1.789022 -9.11914,2.214844 -0.352,0.152729 -2.007688,0.823604 -3.679688,1.490234 -3.528515,1.40681 -6.585872,2.843355 -8.677734,4.078125 -1.458739,0.86105 -1.4813,0.899227 -1.839844,3.185547 -0.199658,1.27316 -0.509199,3.755625 -0.6875,5.515625 -0.178304,1.76 -0.465232,4.06314 -0.638672,5.11914 -0.601811,3.66416 -1.277343,9.084097 -1.277343,10.253907 0,0.81202 0.124198,1.12702 0.40039,1.01758 0.22,-0.0872 1.408625,-0.55764 2.640625,-1.04492 1.232,-0.48729 2.384547,-0.9844 2.560547,-1.10547 0.176,-0.12106 1.039922,-0.41001 1.919922,-0.64063 0.88,-0.23062 1.743922,-0.52397 1.919922,-0.65234 0.176,-0.12836 0.823453,-0.34796 1.439453,-0.48828 0.616,-0.14033 1.263453,-0.30037 1.439453,-0.35547 0.821827,-0.25751 4.640115,-1.14028 6.015625,-1.39063 0.843872,-0.1536 1.777997,-0.35416 2.078125,-0.44726 0.300128,-0.0931 2.84888,-0.32154 5.662109,-0.50782 2.81323,-0.18629 5.260683,-0.486037 5.439453,-0.664057 0.17877,-0.17802 0.414618,-1.936243 0.523438,-3.908203 0.10882,-1.97195 0.370834,-6.096526 0.583984,-9.166016 l 0.388672,-5.582031 -1.835937,-3.619141 c -1.531673,-3.021217 -1.734085,-3.662664 -3.230469,-3.574219 z m 55.255857,8.916016 0.006,1.199219 c 0.003,0.66 -0.17075,6.709106 -0.38476,13.441406 -0.2903,9.131556 -0.29637,12.332546 -0.0254,12.603516 0.19977,0.19978 1.92109,0.47543 3.82422,0.61328 1.90312,0.13779 6.48368,0.18612 10.17968,0.10742 5.99857,-0.12768 8.31723,-0.28337 15.35938,-1.04101 l 1.91992,-0.20703 -0.0273,-2.07813 c -0.0148,-1.14302 -0.2656,-4.59969 -0.55859,-7.679687 -0.29299,-3.08 -0.74444,-8.016733 -1.00195,-10.970703 -0.25752,-2.95398 -0.55313,-5.509667 -0.65821,-5.679687 -0.11826,-0.19135 -5.60958,-0.308594 -14.41211,-0.308594 z m -4,2.511719 -5.36133,10.753906 c -2.948,5.914816 -5.359371,10.882536 -5.359371,11.039066 0,0.15652 0.469016,0.37356 1.041016,0.48242 1.283485,0.24427 4.610735,1.0107 6.958985,1.60351 0.968,0.24437 1.90408,0.40743 2.08008,0.36133 0.39695,-0.10394 0.83052,-11.436867 0.7207,-18.855467 z M 65.995285,87.83911 c -0.32789,0 -0.907905,4.609517 -1.140625,9.054687 -0.12116,2.31434 -0.06321,3.162303 0.226562,3.250003 0.21576,0.0653 1.689438,0.25422 3.273438,0.41797 1.584,0.16373 3.035902,0.31985 3.226562,0.34765 0.19067,0.0278 0.433733,-0.0353 0.539063,-0.14062 0.10534,-0.10533 -1.168125,-2.88863 -2.828125,-6.18555 -1.66,-3.29693 -3.017578,-6.1634 -3.017578,-6.36914 0,-0.20574 -0.125947,-0.375 -0.279297,-0.375 z m -5.160156,15.58398 -3.121094,0.22657 c -3.494103,0.25449 -4.046332,0.31655 -7.419922,0.81445 -1.309443,0.19325 -2.444184,0.41489 -2.521484,0.49219 -0.183175,0.18318 0.595241,0.46913 5.222656,1.92773 2.112,0.66572 4.41514,1.46781 5.11914,1.78125 2.07337,0.92311 2.283689,0.83404 2.511719,-1.06445 0.11098,-0.924 0.203078,-2.24311 0.205078,-2.92969 z m 4.287109,0.57032 c -0.260192,0.003 -0.425261,0.0219 -0.460938,0.0586 -0.14304,0.1473 -0.298403,1.77418 -0.345703,3.61523 l -0.08594,3.34766 2.333984,1.41601 c 2.8533,1.73012 4.194131,3.03243 5.150391,5.00781 0.65476,1.35255 0.710279,1.81224 0.537109,4.43555 -0.16344,2.47599 -0.720912,5.28957 -1.664062,8.40235 -0.25873,0.85392 0.120706,1.00901 3.847656,1.58398 1.584,0.24436 3.456156,0.58361 4.160156,0.75391 0.704,0.17031 2.287531,0.53022 3.519531,0.80078 2.36116,0.51852 4.372794,1.05802 5.439454,1.45703 0.351999,0.13167 1.793171,0.52669 3.201171,0.8789 3.86502,0.9669 3.82111,0.97519 5.09961,-1.02343 2.03949,-3.18824 6.550923,-5.59647 10.500003,-5.60547 l 1.51953,-0.002 0.0215,-1.20118 c 0.0114,-0.66 0.13403,-4.15176 0.27344,-7.75976 0.16198,-4.19229 0.13972,-6.70337 -0.0606,-6.95899 -0.17236,-0.22 -0.67321,-0.40039 -1.11524,-0.40039 -0.44203,0 -1.32452,-0.13651 -1.96094,-0.30273 -2.26855,-0.59252 -8.256626,-1.9375 -8.624996,-1.9375 -0.20616,0 -2.425266,4.10469 -4.931641,9.12109 -2.506369,5.01641 -4.701676,9.07513 -4.878906,9.01953 -0.17723,-0.0556 -2.956211,-5.34578 -6.175781,-11.75586 -3.21953,-6.4098 -6.053755,-11.76624 -6.296865,-11.90229 -0.622685,-0.34846 -7.180608,-1.07065 -9.001953,-1.04882 z m -25.892578,3.48828 c -1.163813,0.003 -2.56968,0.36406 -3.179688,0.89453 -0.1672,0.1454 -0.491936,0.26367 -0.722656,0.26367 -0.408601,0 -1.743693,0.55635 -5.095703,2.12305 l -1.640625,0.76758 -0.169922,1.83398 c -0.270426,2.94017 -0.87454,7.78151 -1.1875,9.51562 -0.15882,0.88 -0.454026,3.03883 -0.65625,4.79883 -0.801337,6.97419 -1.234811,10.27319 -1.441406,10.96094 -0.286435,0.95352 0.112046,0.92209 2.347656,-0.18946 3.70296,-1.84113 10.056048,-4.15513 15.111328,-5.50195 0.792,-0.211 1.800234,-0.50802 2.240235,-0.66211 0.44,-0.1541 1.734906,-0.41916 2.878906,-0.58789 1.144,-0.16874 2.944,-0.45688 4,-0.64062 1.056,-0.18373 3.000313,-0.3378 4.320312,-0.3418 1.319998,-0.004 2.597744,-0.13181 2.839844,-0.28516 0.46013,-0.29145 1.071659,-7.66208 1.130859,-13.62695 l 0.0293,-2.875 -1.11914,-0.54297 c -1.72484,-0.83492 -11.335846,-3.9641 -14.560547,-4.74023 -1.584,-0.38125 -3.420078,-0.84964 -4.080078,-1.04102 -0.295894,-0.0858 -0.656985,-0.12389 -1.044922,-0.12304 z m 104.64453,6.11914 -4,0.11328 c -2.2,0.0629 -6.08864,0.23004 -8.64062,0.37109 -3.84589,0.21255 -9.40292,0.17565 -18.08008,-0.12109 l -1.2793,-0.0449 -0.0859,7.65234 -0.0859,7.65039 8.77149,-0.21875 c 12.63207,-0.31383 13.36689,-0.15656 13.79297,2.9414 0.51066,3.71297 1.62566,5.53206 4.0332,6.57618 1.00481,0.43578 1.92224,0.94573 2.03906,1.13476 0.26407,0.42729 1.88847,0.44518 3.19336,0.0352 0.5405,-0.16989 1.39776,-0.3925 1.90625,-0.4961 l 0.92578,-0.18945 -0.23828,-2.62305 c -0.13005,-1.4425 -0.35236,-3.70148 -0.49414,-5.02148 -0.14177,-1.32 -0.48749,-4.84784 -0.76953,-7.83984 -0.28204,-2.99201 -0.61939,-6.44964 -0.75,-7.68164 z m -79.849608,2.07812 c -0.38526,0 -1.417016,14.22343 -1.072266,14.78125 0.08845,0.14313 0.794893,0.25974 1.570313,0.25977 1.553058,0 1.961207,-0.43165 2.429687,-2.56055 0.13556,-0.616 0.466925,-2.05522 0.734375,-3.19922 0.71566,-3.06124 0.655212,-5.29471 -0.173828,-6.45898 -0.6558,-0.92099 -3.005471,-2.82227 -3.488281,-2.82227 z m -6.410157,18.47852 c -1.769138,0.0284 -5.305162,0.34142 -7.339843,0.69726 -3.060282,0.53519 -6.304245,1.29568 -8.480469,1.98828 -1.056,0.33608 -2.423063,0.76154 -3.039063,0.94531 -0.616,0.18376 -1.407765,0.45754 -1.759765,0.60938 -0.352,0.15184 -1.456861,0.56888 -2.455078,0.92578 -3.122493,1.11639 -9.751805,4.39606 -9.955078,4.92578 -0.106762,0.27822 -0.347175,1.99251 -0.535157,3.8086 -0.187983,1.81609 -0.481236,4.16665 -0.652343,5.22265 -0.171104,1.056 -0.521725,3.57561 -0.777344,5.59961 -0.453286,3.58915 -0.975449,7.71706 -1.964844,15.51953 -0.267814,2.112 -0.550513,4.23671 -0.626953,4.72071 -0.07644,0.484 -0.0021,0.8789 0.164063,0.8789 0.166173,0 2.429823,-1.39101 5.03125,-3.09179 4.805387,-3.1418 9.26162,-5.60615 12.730468,-7.04102 5.571101,-2.30446 11.233712,-4.00707 15.726563,-4.72852 1.433437,-0.23018 2.745925,-0.50425 2.916015,-0.60937 0.4603,-0.28448 0.678453,-2.91588 1.814453,-21.79492 0.27491,-4.56805 0.392879,-8.39213 0.261719,-8.5 -0.07628,-0.0627 -0.468881,-0.0857 -1.058594,-0.0762 z m 4.980469,0.24218 -0.226562,2.40039 c -0.20871,2.22438 -0.353095,4.48244 -1.240235,19.35157 -0.17823,2.98718 -0.280715,6.00107 -0.228515,6.69921 l 0.0957,1.26954 1.919922,-0.0664 c 2.9937,-0.10456 11.340251,0.80924 13.919922,1.52344 0.615999,0.17054 2.343843,0.60781 3.839843,0.97265 4.11901,1.00452 3.698005,0.88287 12.958985,3.74024 2.3776,0.73358 6.24738,1.86114 9.281246,2.70312 0.704,0.19539 1.56793,0.47374 1.91993,0.61914 0.352,0.1454 0.96337,0.27326 1.35937,0.28516 0.6783,0.0204 0.7207,-0.10371 0.7207,-2.15625 v -2.17969 l -2.48046,-0.74219 c -2.96893,-0.88975 -5.354881,-2.36916 -5.884771,-3.64843 -0.31581,-0.76243 -0.289302,-1.30251 0.148438,-2.94532 0.91789,-3.44471 0.835297,-3.74522 -1.783203,-6.44726 l -2.320313,-2.39453 -3.041015,0.19336 c -3.032331,0.19294 -6.693861,-0.10182 -9.119141,-0.73242 -3.04693,-0.79231 -10.86162,-5.57451 -12.896485,-7.89258 -2.148659,-2.4477 -3.283773,-5.00052 -3.527343,-7.9375 L 65.79411,134.39966 H 64.1945 Z m 8.035156,0.48633 c -0.54547,-0.006 -0.587686,0.18934 -0.441406,2.01172 0.33079,4.12091 3.204417,7.0669 10.341797,10.60351 3.29183,1.63116 3.580166,1.73714 5.103516,1.88672 0.704,0.0691 2.431843,0.11045 3.839843,0.0898 l 2.560547,-0.0371 0.203125,-1.44141 c 0.25745,-1.83331 0.862488,-5.61357 1.111328,-6.9375 0.18482,-0.98329 0.143558,-1.03176 -1.201171,-1.36133 -0.766262,-0.18779 -1.83451,-0.48425 -2.375,-0.66015 -0.540504,-0.1759 -1.227491,-0.32032 -1.525391,-0.32031 -0.29789,-3e-5 -0.792036,-0.13814 -1.097656,-0.30665 -0.30561,-0.16851 -1.562922,-0.53845 -2.794922,-0.82226 -1.232,-0.28381 -2.815531,-0.6572 -3.519531,-0.83008 -3.342172,-0.82071 -9.010279,-1.8623 -10.205079,-1.875 z m 75.03906,8.33203 c -0.63548,0.0101 -1.71911,0.11945 -2.41015,0.24219 l -1.25782,0.22266 -0.72265,3.35937 c -0.55214,2.56746 -0.65205,3.65818 -0.42969,4.63672 0.15998,0.704 0.29287,2.02509 0.29687,2.93555 0.007,1.39771 -0.13217,1.79673 -0.89843,2.56054 -1.23535,1.23139 -2.97244,1.6333 -8.05274,1.86524 -3.69497,0.1687 -4.56021,0.31241 -5.98437,0.99414 -1.80819,0.86555 -5.42066,4.48393 -6.27539,6.28515 -0.91694,1.93229 -2.3781,3.64888 -3.59961,4.22852 -0.97813,0.46419 -1.67143,0.53844 -3.55859,0.37891 l -2.3418,-0.19922 v 1.92383 c 0,2.35297 0.11667,2.42175 4.64062,2.81836 v 0.002 c 1.76,0.15429 10.38176,0.29992 19.16016,0.32422 l 15.96094,0.043 -0.21094,-1.67969 c -0.44228,-3.53309 -0.83105,-7.38019 -1.4961,-14.79883 -0.86585,-9.65842 -1.13471,-12.37333 -1.42968,-14.48047 -0.23486,-1.67776 -0.23677,-1.68051 -1.39063,-1.66211 z"
     style="display:inline;fill-opacity:1;stroke-width:0.31999999"
     id="path3726"/>
  <g
     transform="translate(-43.804715,-88.159996)"
     style="display:inline;opacity:1"
     id="layer1" />
  <g
     transform="translate(20,21.485688)"
     style="display:inline"
     id="layer2">
    <text
       transform="scale(0.85824296,1.1651712)"
       id="text9400"
       y="93.577179"
       x="164.77269"
       style="font-style:normal;font-variant:normal;font-weight:bold;font-stretch:normal;font-size:63.90933228px;line-height:1.25;font-family:'Source Sans Pro';-inkscape-font-specification:'Source Sans Pro, Bold';font-variant-ligatures:normal;font-variant-caps:small-caps;font-variant-numeric:normal;font-feature-settings:normal;text-align:start;letter-spacing:-1.19831216px;word-spacing:0px;writing-mode:lr-tb;text-anchor:start;fill-opacity:1;stroke:none;stroke-width:3.57557487"
       xml:space="preserve"><tspan
         style="font-style:normal;font-variant:normal;font-weight:bold;font-stretch:normal;font-size:63.90933228px;font-family:'Source Sans Pro';-inkscape-font-specification:'Source Sans Pro, Bold';font-variant-ligatures:normal;font-variant-caps:small-caps;font-variant-numeric:normal;font-feature-settings:normal;text-align:start;letter-spacing:-1.19831216px;writing-mode:lr-tb;text-anchor:start;stroke-width:3.57557487"
         y="93.577179"
         x="164.77269"
         id="tspan9398"><tspan
           id="tspan9402"
           style="font-style:normal;font-variant:normal;font-weight:bold;font-stretch:normal;font-size:63.90933228px;font-family:'Source Sans Pro';-inkscape-font-specification:'Source Sans Pro, Bold';font-variant-ligatures:normal;font-variant-caps:small-caps;font-variant-numeric:normal;font-feature-settings:normal;text-align:start;letter-spacing:-1.19831216px;writing-mode:lr-tb;text-anchor:start;stroke-width:3.57557487">IB Görtz</tspan></tspan></text>
    <text
       transform="scale(0.83487486,1.1977843)"
       id="text9406"
       y="124.05508"
       x="172.33511"
       style="font-style:normal;font-variant:normal;font-weight:normal;font-stretch:normal;font-size:26.97345924px;line-height:1.25;font-family:'Source Sans Pro';-inkscape-font-specification:'Source Sans Pro, Normal';font-variant-ligatures:normal;font-variant-caps:all-small-caps;font-variant-numeric:normal;font-feature-settings:normal;text-align:start;letter-spacing:-0.86698246px;word-spacing:0px;writing-mode:lr-tb;text-anchor:start;fill-opacity:1;stroke:none;stroke-width:1.44497061"
       xml:space="preserve"><tspan
         style="font-style:normal;font-variant:normal;font-weight:normal;font-stretch:normal;font-size:26.97345924px;font-family:'Source Sans Pro';-inkscape-font-specification:'Source Sans Pro, Normal';font-variant-ligatures:normal;font-variant-caps:all-small-caps;font-variant-numeric:normal;font-feature-settings:normal;text-align:start;writing-mode:lr-tb;text-anchor:start;stroke-width:1.44497061"
         y="124.05508"
         x="172.33511"
         id="tspan9404">Geodatenmanagement</tspan></text>
    <rect
       y="121.186"
       x="145"
       height="2.3880146"
       width="200"
       id="rect9440"
       style="fill-opacity:1;fill-rule:nonzero;stroke-width:0.70904154" />
  </g>
</svg>
