<?xml version="1.0" encoding="UTF-8" standalone="no"?>
<svg
   xmlns:dc="http://purl.org/dc/elements/1.1/"
   xmlns:cc="http://creativecommons.org/ns#"
   xmlns:rdf="http://www.w3.org/1999/02/22-rdf-syntax-ns#"
   xmlns:svg="http://www.w3.org/2000/svg"
   xmlns="http://www.w3.org/2000/svg"
   viewBox="0 0 400 200"
   height="200"
   width="400"
   id="svg3713"
   version="1.1">
  <metadata
     id="metadata3719">
    <rdf:RDF>
      <cc:Work
         rdf:about="">
        <dc:format>image/svg+xml</dc:format>
        <dc:type
           rdf:resource="http://purl.org/dc/dcmitype/StillImage" />
        <dc:title></dc:title>
      </cc:Work>
    </rdf:RDF>
  </metadata>
  <defs
     id="defs3717" />
  <path
     id="path828"
     d="m 143.99217,142.87305 c -0.49152,0.041 -0.9054,0.18242 -1.25196,0.40429 -0.6931,0.44375 -1.09691,1.19533 -1.35156,2.06641 -0.50929,1.74217 -0.45212,4.00837 -0.80078,5.52344 l -0.01,0.041 0.0137,0.041 c 0.84326,2.77758 0.57542,4.48181 -0.33594,5.58203 -0.91136,1.10022 -2.51474,1.62526 -4.41211,1.93359 -1.89737,0.30833 -4.07492,0.40184 -6.10742,0.68555 -2.02984,0.28334 -3.92091,0.75475 -5.2461,1.85156 -7e-4,5.4e-4 -10e-4,10e-4 -0.002,0.002 -2.38929,1.82459 -4.08004,4.85684 -6.08789,7.09961 -1.00422,1.12171 -2.08199,2.04385 -3.35351,2.5332 -1.27153,0.48934 -2.7405,0.55384 -4.56055,-0.0606 l -0.17578,-0.0586 -0.0332,0.18164 c -0.34327,1.83753 0.0431,3.07055 0.9043,3.84766 0.86121,0.7771 2.15654,1.09258 3.60742,1.21093 2.90177,0.23671 6.48272,-0.3151 8.54492,0.10352 l 0.0137,0.002 h 0.0156 c 8.94495,0.12441 17.88899,0.10069 26.83202,0.13672 h 0.18555 l -0.0254,-0.18359 c -1.53031,-10.75265 -1.72364,-21.6944 -3.48828,-32.42969 l -0.0137,-0.082 -0.47461,-0.23047 -0.54883,-0.0117 v 0.0312 l -0.1211,-0.0312 c -0.65752,-0.17267 -1.22527,-0.23048 -1.71679,-0.18945 z"
     style="color:#000000;font-style:normal;font-variant:normal;font-weight:normal;font-stretch:normal;font-size:medium;line-height:normal;font-family:sans-serif;font-variant-ligatures:normal;font-variant-position:normal;font-variant-caps:normal;font-variant-numeric:normal;font-variant-alternates:normal;font-feature-settings:normal;text-indent:0;text-align:start;text-decoration:none;text-decoration-line:none;text-decoration-style:solid;text-decoration-color:#000000;letter-spacing:normal;word-spacing:normal;text-transform:none;writing-mode:lr-tb;direction:ltr;text-orientation:mixed;dominant-baseline:auto;baseline-shift:baseline;text-anchor:start;white-space:normal;shape-padding:0;clip-rule:nonzero;display:none;overflow:visible;visibility:visible;opacity:1;isolation:auto;mix-blend-mode:normal;color-interpolation:sRGB;color-interpolation-filters:linearRGB;solid-color:#000000;solid-opacity:1;vector-effect:none;fill-opacity:1;fill-rule:nonzero;stroke:none;stroke-width:0.31999999;stroke-linecap:butt;stroke-linejoin:miter;stroke-miterlimit:4;stroke-dasharray:none;stroke-dashoffset:0;stroke-opacity:1;color-rendering:auto;image-rendering:auto;shape-rendering:auto;text-rendering:auto;enable-background:accumulate" />
  <g
     transform="translate(-43.804715,-88.159996)"
     style="display:inline;opacity:1"
     id="layer1">
    <path
       transform="translate(43.804715,88.159996)"
       id="path874"
       d="m 57.42774,73.964844 0.84961,0.08984 0.61914,0.474609 c 0.7387,1.55342 1.788125,3.053406 2.529297,4.605469 0.746846,1.563942 1.178592,3.167531 0.6875,4.947265 v 0.002 c -0.66453,2.544936 -0.323175,5.875737 -0.36914,8.882813 -0.02298,1.503538 -0.143566,2.922574 -0.519532,4.113281 -0.373409,1.182612 -0.996261,2.131584 -2.03125,2.748047 -10.068446,0.382152 -19.96301,2.797022 -29.154297,6.886712 -0.289072,-7.537982 1.630645,-15.92667 2.69336,-23.699212 7.282371,-4.876764 15.989111,-7.854126 24.695312,-9.050781 z"
       style="color:#000000;font-style:normal;font-variant:normal;font-weight:normal;font-stretch:normal;font-size:medium;line-height:normal;font-family:sans-serif;font-variant-ligatures:normal;font-variant-position:normal;font-variant-caps:normal;font-variant-numeric:normal;font-variant-alternates:normal;font-feature-settings:normal;text-indent:0;text-align:start;text-decoration:none;text-decoration-line:none;text-decoration-style:solid;text-decoration-color:#000000;letter-spacing:normal;word-spacing:normal;text-transform:none;writing-mode:lr-tb;direction:ltr;text-orientation:mixed;dominant-baseline:auto;baseline-shift:baseline;text-anchor:start;white-space:normal;shape-padding:0;clip-rule:nonzero;display:none;overflow:visible;visibility:visible;opacity:1;isolation:auto;mix-blend-mode:normal;color-interpolation:sRGB;color-interpolation-filters:linearRGB;solid-color:#000000;solid-opacity:1;vector-effect:none;fill-opacity:1;fill-rule:nonzero;stroke:none;stroke-width:0.31999999;stroke-linecap:butt;stroke-linejoin:miter;stroke-miterlimit:4;stroke-dasharray:none;stroke-dashoffset:0;stroke-opacity:1;color-rendering:auto;image-rendering:auto;shape-rendering:auto;text-rendering:auto;enable-background:accumulate" />
    <path
       transform="translate(43.804715,88.159996)"
       id="path850"
       d="m 39.228501,107.64648 c 6.784965,1.36798 13.505481,3.48473 19.943359,6.04883 0.94473,1.57949 0.947556,3.78626 0.71875,6.1211 -0.230497,2.35209 -0.6822,4.81717 -0.544922,6.88867 v -0.0195 c -0.10539,1.83135 -0.852888,2.86887 -2.015625,3.50781 -1.162737,0.63894 -2.758756,0.85708 -4.515625,0.94922 -3.496167,0.18335 -7.613733,-0.13452 -10.265625,1.6543 -5.986162,1.36264 -11.710466,4.26289 -17.287109,6.12695 1.167279,-8.10469 2.153094,-16.23871 3.203125,-24.35742 l 0.002,-0.0195 -0.002,-0.0176 c -0.150482,-1.32975 0.209267,-2.29841 0.892578,-3.06055 0.683311,-0.76214 1.703542,-1.31281 2.867187,-1.74805 2.305444,-0.86231 5.13983,-1.26261 7.003907,-2.07422 z"
       style="color:#000000;font-style:normal;font-variant:normal;font-weight:normal;font-stretch:normal;font-size:medium;line-height:normal;font-family:sans-serif;font-variant-ligatures:normal;font-variant-position:normal;font-variant-caps:normal;font-variant-numeric:normal;font-variant-alternates:normal;font-feature-settings:normal;text-indent:0;text-align:start;text-decoration:none;text-decoration-line:none;text-decoration-style:solid;text-decoration-color:#000000;letter-spacing:normal;word-spacing:normal;text-transform:none;writing-mode:lr-tb;direction:ltr;text-orientation:mixed;dominant-baseline:auto;baseline-shift:baseline;text-anchor:start;white-space:normal;shape-padding:0;clip-rule:nonzero;display:inline;overflow:visible;visibility:visible;opacity:1;isolation:auto;mix-blend-mode:normal;color-interpolation:sRGB;color-interpolation-filters:linearRGB;solid-color:#000000;solid-opacity:1;vector-effect:none;fill-opacity:1;fill-rule:nonzero;stroke:none;stroke-width:0.31999999;stroke-linecap:butt;stroke-linejoin:miter;stroke-miterlimit:4;stroke-dasharray:none;stroke-dashoffset:0;stroke-opacity:1;color-rendering:auto;image-rendering:auto;shape-rendering:auto;text-rendering:auto;enable-background:accumulate" />
    <path
       transform="translate(43.804715,88.159996)"
       id="path836"
       d="m 57.613266,134.31641 0.910157,0.0664 0.04297,0.58594 v 0.008 c -0.509619,9.81168 -0.603441,19.75875 -2.117187,29.42188 -7.337151,1.30981 -14.596373,3.31837 -21.333985,6.58398 -5.235907,2.23559 -10.117278,6.50812 -14.90039,8.48242 1.378,-11.71129 2.954085,-23.41987 4.519531,-35.11132 9.894187,-5.90501 21.349677,-9.48703 32.878906,-10.03711 z"
       style="color:#000000;font-style:normal;font-variant:normal;font-weight:normal;font-stretch:normal;font-size:medium;line-height:normal;font-family:sans-serif;font-variant-ligatures:normal;font-variant-position:normal;font-variant-caps:normal;font-variant-numeric:normal;font-variant-alternates:normal;font-feature-settings:normal;text-indent:0;text-align:start;text-decoration:none;text-decoration-line:none;text-decoration-style:solid;text-decoration-color:#000000;letter-spacing:normal;word-spacing:normal;text-transform:none;writing-mode:lr-tb;direction:ltr;text-orientation:mixed;dominant-baseline:auto;baseline-shift:baseline;text-anchor:start;white-space:normal;shape-padding:0;clip-rule:nonzero;display:inline;overflow:visible;visibility:visible;opacity:1;isolation:auto;mix-blend-mode:normal;color-interpolation:sRGB;color-interpolation-filters:linearRGB;solid-color:#000000;solid-opacity:1;vector-effect:none;fill-opacity:1;fill-rule:nonzero;stroke:none;stroke-width:0.31999999;stroke-linecap:butt;stroke-linejoin:miter;stroke-miterlimit:4;stroke-dasharray:none;stroke-dashoffset:0;stroke-opacity:1;color-rendering:auto;image-rendering:auto;shape-rendering:auto;text-rendering:auto;enable-background:accumulate" />
    <path
       transform="translate(43.804715,88.159996)"
       id="path866"
       d="m 108.50976,85.929688 c 0.10873,6.075224 0.1496,12.151372 -0.14258,18.218752 v 0.0234 l 0.006,0.0215 c 0.49763,2.03924 0.34713,3.26316 -0.16407,3.94141 -0.5112,0.67824 -1.41784,0.87488 -2.56836,0.78711 -2.24397,-0.1712 -5.26888,-1.42917 -7.460936,-1.99415 3.294566,-7.067503 6.868226,-14.004367 10.330086,-20.998042 z"
       style="color:#000000;font-style:normal;font-variant:normal;font-weight:normal;font-stretch:normal;font-size:medium;line-height:normal;font-family:sans-serif;font-variant-ligatures:normal;font-variant-position:normal;font-variant-caps:normal;font-variant-numeric:normal;font-variant-alternates:normal;font-feature-settings:normal;text-indent:0;text-align:start;text-decoration:none;text-decoration-line:none;text-decoration-style:solid;text-decoration-color:#000000;letter-spacing:normal;word-spacing:normal;text-transform:none;writing-mode:lr-tb;direction:ltr;text-orientation:mixed;dominant-baseline:auto;baseline-shift:baseline;text-anchor:start;white-space:normal;shape-padding:0;clip-rule:nonzero;display:inline;overflow:visible;visibility:visible;opacity:1;isolation:auto;mix-blend-mode:normal;color-interpolation:sRGB;color-interpolation-filters:linearRGB;solid-color:#000000;solid-opacity:1;vector-effect:none;fill-opacity:1;fill-rule:nonzero;stroke:none;stroke-width:0.31999999;stroke-linecap:butt;stroke-linejoin:miter;stroke-miterlimit:4;stroke-dasharray:none;stroke-dashoffset:0;stroke-opacity:1;color-rendering:auto;image-rendering:auto;shape-rendering:auto;text-rendering:auto;enable-background:accumulate" />
    <path
       transform="translate(43.804715,88.159996)"
       id="path862"
       d="m 66.058577,88.318359 c 0.764674,1.929442 2.024397,4.133223 3.175781,6.31836 1.198683,2.274903 2.165727,4.472059 2.158203,6.126951 -2.143831,0.42499 -3.637552,0.2273 -4.61914,-0.40625 -1.009229,-0.651388 -1.534422,-1.749004 -1.748047,-3.113279 -0.407388,-2.601694 0.361454,-6.090519 1.033203,-8.925782 z"
       style="color:#000000;font-style:normal;font-variant:normal;font-weight:normal;font-stretch:normal;font-size:medium;line-height:normal;font-family:sans-serif;font-variant-ligatures:normal;font-variant-position:normal;font-variant-caps:normal;font-variant-numeric:normal;font-variant-alternates:normal;font-feature-settings:normal;text-indent:0;text-align:start;text-decoration:none;text-decoration-line:none;text-decoration-style:solid;text-decoration-color:#000000;letter-spacing:normal;word-spacing:normal;text-transform:none;writing-mode:lr-tb;direction:ltr;text-orientation:mixed;dominant-baseline:auto;baseline-shift:baseline;text-anchor:start;white-space:normal;shape-padding:0;clip-rule:nonzero;display:inline;overflow:visible;visibility:visible;opacity:1;isolation:auto;mix-blend-mode:normal;color-interpolation:sRGB;color-interpolation-filters:linearRGB;solid-color:#000000;solid-opacity:1;vector-effect:none;fill-opacity:1;fill-rule:nonzero;stroke:none;stroke-width:0.31999999;stroke-linecap:butt;stroke-linejoin:miter;stroke-miterlimit:4;stroke-dasharray:none;stroke-dashoffset:0;stroke-opacity:1;color-rendering:auto;image-rendering:auto;shape-rendering:auto;text-rendering:auto;enable-background:accumulate" />
    <path
       transform="translate(43.804715,88.159996)"
       id="path854"
       d="m 65.24803,104.16797 c 2.940609,0.13466 5.909638,0.37375 8.773437,1.02148 3.653474,6.23714 6.64932,12.84546 10.044922,19.24414 0.322973,1.1363 0.649475,1.9668 0.988282,2.53907 0.341422,0.57668 0.701165,0.90889 1.095703,1.00781 0.394537,0.0989 0.786637,-0.056 1.142578,-0.35352 0.355941,-0.29754 0.695682,-0.74111 1.03125,-1.27929 0.671135,-1.07637 1.323184,-2.53379 1.953125,-3.9336 0.629941,-1.39981 1.238779,-2.74359 1.796875,-3.57226 l 0.01563,-0.0215 0.0059,-0.0254 c 0.965953,-3.4332 2.512193,-5.8923 4.630859,-7.03125 2.118667,-1.13895 4.836909,-0.98921 8.228519,0.87305 l 0.0273,0.0156 0.0312,0.004 c 1.67228,0.20032 2.55785,0.95903 3.02539,2.08594 0.46754,1.1269 0.49149,2.64153 0.33789,4.29687 -0.30044,3.23788 -1.24307,6.95692 -0.65234,9.51172 -1.75225,-0.30972 -3.34069,0.0857 -4.80664,0.86133 -1.52104,0.80474 -2.928857,1.97872 -4.320315,3.09961 -1.391457,1.12089 -2.767753,2.18691 -4.207031,2.78906 -1.439278,0.60216 -2.931546,0.74888 -4.617187,0.0352 l 0.002,0.002 c -3.009037,-1.31462 -6.543283,-1.88176 -9.947266,-2.49023 -3.359364,-0.6005 -6.578071,-1.25668 -9.048828,-2.66602 1.111165,-3.09387 1.927617,-6.79015 1.529297,-10.125 -0.404358,-3.38539 -2.077792,-6.39711 -5.916016,-7.91406 l -0.0098,-0.004 -0.0098,-0.002 c -0.878883,-0.21751 -1.403923,-0.6894 -1.71875,-1.32031 -0.314827,-0.63092 -0.410518,-1.42994 -0.371094,-2.27149 0.07663,-1.63571 0.653551,-3.37405 0.964844,-4.37695 z"
       style="color:#000000;font-style:normal;font-variant:normal;font-weight:normal;font-stretch:normal;font-size:medium;line-height:normal;font-family:sans-serif;font-variant-ligatures:normal;font-variant-position:normal;font-variant-caps:normal;font-variant-numeric:normal;font-variant-alternates:normal;font-feature-settings:normal;text-indent:0;text-align:start;text-decoration:none;text-decoration-line:none;text-decoration-style:solid;text-decoration-color:#000000;letter-spacing:normal;word-spacing:normal;text-transform:none;writing-mode:lr-tb;direction:ltr;text-orientation:mixed;dominant-baseline:auto;baseline-shift:baseline;text-anchor:start;white-space:normal;shape-padding:0;clip-rule:nonzero;display:inline;overflow:visible;visibility:visible;opacity:1;isolation:auto;mix-blend-mode:normal;color-interpolation:sRGB;color-interpolation-filters:linearRGB;solid-color:#000000;solid-opacity:1;vector-effect:none;fill-opacity:1;fill-rule:nonzero;stroke:none;stroke-width:0.31999999;stroke-linecap:butt;stroke-linejoin:miter;stroke-miterlimit:4;stroke-dasharray:none;stroke-dashoffset:0;stroke-opacity:1;color-rendering:auto;image-rendering:auto;shape-rendering:auto;text-rendering:auto;enable-background:accumulate" />
    <path
       transform="translate(43.804715,88.159996)"
       id="path842"
       d="m 64.156235,115.93359 c 1.463369,0.58449 2.443571,1.42102 3.027344,2.44922 0.612872,1.07945 0.827198,2.35652 0.791015,3.7168 -0.0714,2.68447 -1.124727,5.66309 -1.947265,7.98047 -0.751877,0.13953 -1.351589,0.11843 -1.791016,-0.0566 -0.460027,-0.18328 -0.778138,-0.50929 -1.001953,-0.9668 -0.447629,-0.91501 -0.47731,-2.35853 -0.304687,-3.98633 0.172622,-1.62779 0.536749,-3.43787 0.833984,-5.10937 0.278457,-1.56591 0.455973,-2.94917 0.392578,-4.02735 z"
       style="color:#000000;font-style:normal;font-variant:normal;font-weight:normal;font-stretch:normal;font-size:medium;line-height:normal;font-family:sans-serif;font-variant-ligatures:normal;font-variant-position:normal;font-variant-caps:normal;font-variant-numeric:normal;font-variant-alternates:normal;font-feature-settings:normal;text-indent:0;text-align:start;text-decoration:none;text-decoration-line:none;text-decoration-style:solid;text-decoration-color:#000000;letter-spacing:normal;word-spacing:normal;text-transform:none;writing-mode:lr-tb;direction:ltr;text-orientation:mixed;dominant-baseline:auto;baseline-shift:baseline;text-anchor:start;white-space:normal;shape-padding:0;clip-rule:nonzero;display:inline;overflow:visible;visibility:visible;opacity:1;isolation:auto;mix-blend-mode:normal;color-interpolation:sRGB;color-interpolation-filters:linearRGB;solid-color:#000000;solid-opacity:1;vector-effect:none;fill-opacity:1;fill-rule:nonzero;stroke:none;stroke-width:0.31999999;stroke-linecap:butt;stroke-linejoin:miter;stroke-miterlimit:4;stroke-dasharray:none;stroke-dashoffset:0;stroke-opacity:1;color-rendering:auto;image-rendering:auto;shape-rendering:auto;text-rendering:auto;enable-background:accumulate" />
    <path
       transform="translate(43.804715,88.159996)"
       id="path876"
       d="m 57.41602,73.642578 -0.01953,0.002 C 48.621066,74.848883 39.841697,77.849403 32.4961,82.78325 l -0.06055,0.04102 -0.0098,0.07031 c -1.067991,7.848418 -3.05152,16.377785 -2.710937,24.0625 l 0.0098,0.23633 0.214844,-0.0977 c 9.237245,-4.14312 19.196222,-6.57669 29.324219,-6.95312 l 0.04102,-0.002 0.0332,-0.0195 c 1.125314,-0.661619 1.80132,-1.701744 2.193359,-2.943357 0.392039,-1.241612 0.508059,-2.689908 0.53125,-4.207031 0.04637,-3.033545 -0.280276,-6.352918 0.359375,-8.804687 v -0.002 c 0.516219,-1.873236 0.05573,-3.570688 -0.707031,-5.167968 -0.763043,-1.59786 -1.826209,-3.108208 -2.548828,-4.638672 l -0.01758,-0.03516 -0.746094,-0.576172 z"
       style="color:#000000;font-style:normal;font-variant:normal;font-weight:normal;font-stretch:normal;font-size:medium;line-height:normal;font-family:sans-serif;font-variant-ligatures:normal;font-variant-position:normal;font-variant-caps:normal;font-variant-numeric:normal;font-variant-alternates:normal;font-feature-settings:normal;text-indent:0;text-align:start;text-decoration:none;text-decoration-line:none;text-decoration-style:solid;text-decoration-color:#000000;letter-spacing:normal;word-spacing:normal;text-transform:none;writing-mode:lr-tb;direction:ltr;text-orientation:mixed;dominant-baseline:auto;baseline-shift:baseline;text-anchor:start;white-space:normal;shape-padding:0;clip-rule:nonzero;display:inline;overflow:visible;visibility:visible;opacity:1;isolation:auto;mix-blend-mode:normal;color-interpolation:sRGB;color-interpolation-filters:linearRGB;solid-color:#000000;solid-opacity:1;vector-effect:none;fill-opacity:1;fill-rule:nonzero;stroke:none;stroke-width:0.31999999;stroke-linecap:butt;stroke-linejoin:miter;stroke-miterlimit:4;stroke-dasharray:none;stroke-dashoffset:0;stroke-opacity:1;color-rendering:auto;image-rendering:auto;shape-rendering:auto;text-rendering:auto;enable-background:accumulate" />
    <path
       transform="translate(43.804715,88.159996)"
       id="path870"
       d="m 126.99806,82.859375 c 4.7292,-0.0049 9.45499,0.05046 14.16406,0.324219 0.96521,8.675217 1.94942,17.382556 2.22266,26.105466 -10.26146,1.04249 -20.75088,2.1155 -30.95508,0.53125 -0.50218,-8.93974 0.44761,-17.94774 0.40234,-26.939451 4.71899,0.04462 9.4439,-0.01655 14.16602,-0.02148 z"
       style="color:#000000;font-style:normal;font-variant:normal;font-weight:normal;font-stretch:normal;font-size:medium;line-height:normal;font-family:sans-serif;font-variant-ligatures:normal;font-variant-position:normal;font-variant-caps:normal;font-variant-numeric:normal;font-variant-alternates:normal;font-feature-settings:normal;text-indent:0;text-align:start;text-decoration:none;text-decoration-line:none;text-decoration-style:solid;text-decoration-color:#000000;letter-spacing:normal;word-spacing:normal;text-transform:none;writing-mode:lr-tb;direction:ltr;text-orientation:mixed;dominant-baseline:auto;baseline-shift:baseline;text-anchor:start;white-space:normal;shape-padding:0;clip-rule:nonzero;display:inline;overflow:visible;visibility:visible;opacity:1;isolation:auto;mix-blend-mode:normal;color-interpolation:sRGB;color-interpolation-filters:linearRGB;solid-color:#000000;solid-opacity:1;vector-effect:none;fill-opacity:1;fill-rule:nonzero;stroke:none;stroke-width:0.31999999;stroke-linecap:butt;stroke-linejoin:miter;stroke-miterlimit:4;stroke-dasharray:none;stroke-dashoffset:0;stroke-opacity:1;color-rendering:auto;image-rendering:auto;shape-rendering:auto;text-rendering:auto;enable-background:accumulate" />
    <path
       transform="translate(43.804715,88.159996)"
       id="path3726"
       d="m 144.02337,143.19141 c 0.41302,-0.0339 0.91621,0.03 1.48633,0.16797 v 0.0156 l 0.79101,0.0176 0.25977,0.125 c 1.73799,10.61994 1.95007,21.46784 3.45703,32.16211 -8.88458,-0.035 -17.76889,-0.0112 -26.65038,-0.13477 -2.18574,-0.4344 -5.72393,0.12529 -8.55274,-0.10547 -1.41955,-0.1158 -2.64452,-0.43099 -3.41797,-1.1289 -0.74535,-0.67257 -1.07541,-1.73541 -0.80468,-3.39453 1.77648,0.55438 3.28392,0.51459 4.57031,0.0195 1.34047,-0.51588 2.45459,-1.4776 3.47656,-2.61914 2.04395,-2.28309 3.73356,-5.29647 6.04492,-7.06055 l 0.004,-0.002 0.002,-0.002 c 1.24396,-1.0323 3.0809,-1.50446 5.09179,-1.78515 2.0109,-0.2807 4.18793,-0.37267 6.11329,-0.68555 1.92535,-0.31288 3.61144,-0.84449 4.60741,-2.04687 0.98912,-1.1941 1.24257,-3.03206 0.4043,-5.83008 0.35789,-1.58676 0.30614,-3.81873 0.78907,-5.47071 0.24302,-0.83131 0.61498,-1.50141 1.2168,-1.88671 0.3009,-0.19266 0.66519,-0.31889 1.11133,-0.35547 z"
       style="color:#000000;font-style:normal;font-variant:normal;font-weight:normal;font-stretch:normal;font-size:medium;line-height:normal;font-family:sans-serif;font-variant-ligatures:normal;font-variant-position:normal;font-variant-caps:normal;font-variant-numeric:normal;font-variant-alternates:normal;font-feature-settings:normal;text-indent:0;text-align:start;text-decoration:none;text-decoration-line:none;text-decoration-style:solid;text-decoration-color:#000000;letter-spacing:normal;word-spacing:normal;text-transform:none;writing-mode:lr-tb;direction:ltr;text-orientation:mixed;dominant-baseline:auto;baseline-shift:baseline;text-anchor:start;white-space:normal;shape-padding:0;clip-rule:nonzero;display:inline;overflow:visible;visibility:visible;opacity:1;isolation:auto;mix-blend-mode:normal;color-interpolation:sRGB;color-interpolation-filters:linearRGB;solid-color:#000000;solid-opacity:1;vector-effect:none;fill-opacity:1;fill-rule:nonzero;stroke:none;stroke-width:0.31999999;stroke-linecap:butt;stroke-linejoin:miter;stroke-miterlimit:4;stroke-dasharray:none;stroke-dashoffset:0;stroke-opacity:1;color-rendering:auto;image-rendering:auto;shape-rendering:auto;text-rendering:auto;enable-background:accumulate" />
    <path
       transform="translate(43.804715,88.159996)"
       id="path834"
       d="m 64.775376,134.48438 c 0.3604,-0.0174 0.657391,0.0205 0.810547,0.13085 0.07658,0.0552 0.126519,0.12332 0.154296,0.23633 0.02778,0.11302 0.02686,0.27528 -0.02148,0.49414 l -0.002,0.0137 -0.002,0.0156 c -0.144744,4.4687 1.937129,7.96709 4.921875,10.73242 2.984318,2.76494 6.872779,4.81165 10.384765,6.41211 4.389646,2.01655 9.620078,0.70903 13.84375,1.35547 1.592021,0.76513 2.432174,1.79214 2.896485,2.9707 0.466558,1.18427 0.551116,2.52598 0.603515,3.87891 0.0524,1.35293 0.07206,2.71518 0.439454,3.94336 0.367398,1.22818 1.094862,2.31981 2.527337,3.08398 l 0.0117,0.006 0.0117,0.006 c 1.65179,0.56244 3.49751,1.0181 4.61914,1.85156 0.56081,0.41674 0.93992,0.91498 1.05664,1.57618 0.1111,0.62936 -0.0661,1.45185 -0.55273,2.46875 -14.952785,-3.37458 -29.550997,-10.41987 -45.316416,-9.69727 -0.05722,-9.80112 0.849582,-19.61606 1.580079,-29.4043 0.263668,0.053 0.544536,0.0759 0.863281,0.0449 0.393728,-0.0382 0.809522,-0.10174 1.169922,-0.11914 z"
       style="color:#000000;font-style:normal;font-variant:normal;font-weight:normal;font-stretch:normal;font-size:medium;line-height:normal;font-family:sans-serif;font-variant-ligatures:normal;font-variant-position:normal;font-variant-caps:normal;font-variant-numeric:normal;font-variant-alternates:normal;font-feature-settings:normal;text-indent:0;text-align:start;text-decoration:none;text-decoration-line:none;text-decoration-style:solid;text-decoration-color:#000000;letter-spacing:normal;word-spacing:normal;text-transform:none;writing-mode:lr-tb;direction:ltr;text-orientation:mixed;dominant-baseline:auto;baseline-shift:baseline;text-anchor:start;white-space:normal;shape-padding:0;clip-rule:nonzero;display:inline;overflow:visible;visibility:visible;opacity:1;isolation:auto;mix-blend-mode:normal;color-interpolation:sRGB;color-interpolation-filters:linearRGB;solid-color:#000000;solid-opacity:1;vector-effect:none;fill-opacity:1;fill-rule:nonzero;stroke:none;stroke-width:0.31999999;stroke-linecap:butt;stroke-linejoin:miter;stroke-miterlimit:4;stroke-dasharray:none;stroke-dashoffset:0;stroke-opacity:1;color-rendering:auto;image-rendering:auto;shape-rendering:auto;text-rendering:auto;enable-background:accumulate" />
    <path
       transform="translate(43.804715,88.159996)"
       id="path846"
       d="m 143.7285,113.76562 c 0.43655,4.01934 0.80798,8.0456 1.19336,12.07227 v -0.0332 c -0.22339,2.0718 0.4495,4.7431 0.8789,7.23437 0.2147,1.24564 0.36944,2.44425 0.33008,3.48828 -0.0389,1.03301 -0.27697,1.90114 -0.80664,2.53711 -3.32704,1.54821 -6.0269,0.51885 -8.08788,-1.57617 -2.07111,-2.10531 -3.46104,-5.29558 -4.03321,-7.95312 l -0.0234,-0.10157 -0.10158,-0.0195 c -6.95959,-1.44655 -14.17968,-0.28096 -21.21288,-0.35742 0.0561,-4.99219 0.1119,-9.98438 0.16797,-14.97656 10.57658,0.64034 21.13916,0.0451 31.69531,-0.31446 z"
       style="color:#000000;font-style:normal;font-variant:normal;font-weight:normal;font-stretch:normal;font-size:medium;line-height:normal;font-family:sans-serif;font-variant-ligatures:normal;font-variant-position:normal;font-variant-caps:normal;font-variant-numeric:normal;font-variant-alternates:normal;font-feature-settings:normal;text-indent:0;text-align:start;text-decoration:none;text-decoration-line:none;text-decoration-style:solid;text-decoration-color:#000000;letter-spacing:normal;word-spacing:normal;text-transform:none;writing-mode:lr-tb;direction:ltr;text-orientation:mixed;dominant-baseline:auto;baseline-shift:baseline;text-anchor:start;white-space:normal;shape-padding:0;clip-rule:nonzero;display:inline;overflow:visible;visibility:visible;opacity:1;isolation:auto;mix-blend-mode:normal;color-interpolation:sRGB;color-interpolation-filters:linearRGB;solid-color:#000000;solid-opacity:1;vector-effect:none;fill-opacity:1;fill-rule:nonzero;stroke:none;stroke-width:0.31999999;stroke-linecap:butt;stroke-linejoin:miter;stroke-miterlimit:4;stroke-dasharray:none;stroke-dashoffset:0;stroke-opacity:1;color-rendering:auto;image-rendering:auto;shape-rendering:auto;text-rendering:auto;enable-background:accumulate" />
    <path
       transform="translate(43.804715,88.159996)"
       id="path830"
       d="m 70.76561,135.07227 c 5.512544,0.70886 11.014694,1.90346 16.337891,3.49414 l 0.02539,0.008 0.02734,-0.002 c 1.583785,-0.0686 2.800781,0.13034 3.701172,0.5332 0.900391,0.40286 1.488264,1.005 1.83789,1.77344 0.699254,1.53687 0.417954,3.77403 -0.496093,6.29492 l -0.01172,0.0293 0.002,0.0313 c 0.03071,1.07145 -0.362236,1.66309 -1.023437,2.00976 -0.661202,0.34668 -1.617347,0.42393 -2.673828,0.33789 -2.106053,-0.17151 -4.574234,-0.96792 -5.935547,-1.27148 -2.632261,-1.17356 -6.117103,-2.88276 -8.666016,-5.11914 -1.276172,-1.1197 -2.316877,-2.36846 -2.904297,-3.74219 -0.570174,-1.3334 -0.691883,-2.78874 -0.220703,-4.37695 z"
       style="color:#000000;font-style:normal;font-variant:normal;font-weight:normal;font-stretch:normal;font-size:medium;line-height:normal;font-family:sans-serif;font-variant-ligatures:normal;font-variant-position:normal;font-variant-caps:normal;font-variant-numeric:normal;font-variant-alternates:normal;font-feature-settings:normal;text-indent:0;text-align:start;text-decoration:none;text-decoration-line:none;text-decoration-style:solid;text-decoration-color:#000000;letter-spacing:normal;word-spacing:normal;text-transform:none;writing-mode:lr-tb;direction:ltr;text-orientation:mixed;dominant-baseline:auto;baseline-shift:baseline;text-anchor:start;white-space:normal;shape-padding:0;clip-rule:nonzero;display:inline;overflow:visible;visibility:visible;opacity:1;isolation:auto;mix-blend-mode:normal;color-interpolation:sRGB;color-interpolation-filters:linearRGB;solid-color:#000000;solid-opacity:1;vector-effect:none;fill-opacity:1;fill-rule:nonzero;stroke:none;stroke-width:0.31999999;stroke-linecap:butt;stroke-linejoin:miter;stroke-miterlimit:4;stroke-dasharray:none;stroke-dashoffset:0;stroke-opacity:1;color-rendering:auto;image-rendering:auto;shape-rendering:auto;text-rendering:auto;enable-background:accumulate" />
  </g>
  <g
     transform="translate(20,21.485688)"
     style="display:inline"
     id="layer2">
    <g
       id="text9400"
       style="font-style:normal;font-variant:normal;font-weight:bold;font-stretch:normal;font-size:63.90933228px;line-height:1.25;font-family:'Source Sans Pro';-inkscape-font-specification:'Source Sans Pro, Bold';font-variant-ligatures:normal;font-variant-caps:small-caps;font-variant-numeric:normal;font-feature-settings:normal;text-align:start;letter-spacing:-1.19831216px;word-spacing:0px;writing-mode:lr-tb;text-anchor:start;display:inline;fill-opacity:1;stroke:none;stroke-width:3.57557487"
       transform="scale(0.85824296,1.1651712)"
       aria-label="IB Görtz">
      <path
         d="m 376.12676,88.017067 14.76305,-20.514896 h -13.29314 v -7.669119 h 24.60509 v 5.560111 l -14.76305,20.514896 h 14.95478 v 7.66912 H 376.12676 Z M 355.68477,67.502171 h -9.39467 v -7.669119 h 28.18402 v 7.669119 h -9.39468 v 26.075008 h -9.39467 z m -30.55363,8.499942 h 3.4511 q 2.93983,0 4.40974,-1.214278 1.53383,-1.278186 1.53383,-3.387194 0,-2.300736 -1.59774,-3.259376 -1.59773,-0.95864 -4.47365,-0.95864 h -3.32328 z m 10.2894,17.575066 -6.32703,-11.184133 h -3.96237 v 11.184133 h -9.39468 V 59.833052 h 13.35705 q 2.87592,0 5.49621,0.511274 2.62028,0.511275 4.53756,1.789461 1.98119,1.278187 3.13156,3.387195 1.15036,2.109008 1.15036,5.304475 0,3.451104 -1.66164,5.879658 -1.59773,2.428555 -4.28192,3.83456 l 7.86084,13.037504 z m -42.97802,0.766912 q -3.77065,0 -6.8383,-1.214277 -3.06765,-1.214278 -5.30448,-3.451104 -2.23682,-2.300736 -3.4511,-5.624022 -1.21428,-3.323285 -1.21428,-7.541301 0,-4.218016 1.21428,-7.413482 1.21428,-3.259376 3.4511,-5.496203 2.23683,-2.236827 5.30448,-3.387194 3.06765,-1.150368 6.8383,-1.150368 3.70674,0 6.77439,1.150368 3.06765,1.150367 5.24056,3.387194 2.23683,2.236827 3.45111,5.496203 1.21427,3.259376 1.21427,7.413482 0,4.218016 -1.21427,7.541301 -1.21428,3.323286 -3.45111,5.624022 -2.17291,2.236826 -5.24056,3.451104 -3.06765,1.214277 -6.77439,1.214277 z m 0,-7.733029 q 3.25937,0 5.11274,-2.684192 1.91728,-2.684192 1.91728,-7.413483 0,-4.665381 -1.91728,-7.157845 -1.85337,-2.556373 -5.11274,-2.556373 -3.3872,0 -5.30448,2.556373 -1.85337,2.492464 -1.85337,7.157845 0,4.729291 1.85337,7.413483 1.91728,2.684192 5.30448,2.684192 z m -7.09394,-30.804298 q -1.98119,0 -3.25937,-1.278187 -1.21428,-1.278187 -1.21428,-3.195467 0,-1.91728 1.21428,-3.195466 1.27818,-1.278187 3.25937,-1.278187 1.98119,0 3.19547,1.278187 1.27819,1.278186 1.27819,3.195466 0,1.91728 -1.27819,3.195467 -1.21428,1.278187 -3.19547,1.278187 z m 14.18787,0 q -1.98119,0 -3.25937,-1.278187 -1.21428,-1.278187 -1.21428,-3.195467 0,-1.91728 1.21428,-3.195466 1.27818,-1.278187 3.25937,-1.278187 1.98119,0 3.19547,1.278187 1.27819,1.278186 1.27819,3.195466 0,1.91728 -1.27819,3.195467 -1.21428,1.278187 -3.19547,1.278187 z m -44.38202,38.537327 q -4.28193,0 -8.05258,-1.342096 -3.70674,-1.406005 -6.45484,-4.090197 -2.7481,-2.684192 -4.34583,-6.646571 -1.53383,-4.026288 -1.53383,-9.266853 0,-5.176656 1.59773,-9.202944 1.59774,-4.090197 4.34584,-6.902208 2.81201,-2.81201 6.51875,-4.281925 3.70674,-1.469915 7.86085,-1.469915 4.53756,0 7.79694,1.661643 3.25937,1.661643 5.30447,3.770651 l -4.92102,6.007477 q -1.59773,-1.406006 -3.38719,-2.364645 -1.78946,-0.95864 -4.47365,-0.95864 -2.42856,0 -4.47366,0.95864 -1.98119,0.89473 -3.4511,2.620282 -1.46992,1.725552 -2.30074,4.218016 -0.76691,2.492464 -0.76691,5.624021 0,6.454843 2.87592,10.033765 2.93983,3.515014 8.81949,3.515014 1.27819,0 2.49246,-0.319547 1.21428,-0.319547 1.98119,-0.95864 v -7.157845 h -6.90221 v -7.66912 h 15.21042 v 19.1728 q -2.17291,2.109008 -5.75183,3.578922 -3.57893,1.469915 -7.98867,1.469915 z M 187.71812,51.908294 h 14.25179 q 3.25937,0 6.00747,0.511275 2.81201,0.447365 4.85711,1.661643 2.10901,1.214277 3.25938,3.195466 1.21428,1.98119 1.21428,4.984928 0,1.406005 -0.38346,2.812011 -0.38346,1.406005 -1.08646,2.620282 -0.703,1.214278 -1.72555,2.172918 -0.95864,0.95864 -2.23683,1.406005 v 0.255637 q 1.59774,0.383456 2.93983,1.214278 1.3421,0.766912 2.36465,1.981189 1.02255,1.214277 1.59773,2.87592 0.57518,1.597733 0.57518,3.706741 0,3.195467 -1.27818,5.496203 -1.21428,2.300736 -3.45111,3.83456 -2.17291,1.469914 -5.11274,2.236826 -2.93983,0.703003 -6.32703,0.703003 h -15.46606 z m 13.80442,16.680336 q 3.4511,0 4.98493,-1.342096 1.59773,-1.342096 1.59773,-3.578923 0,-2.428554 -1.59773,-3.451103 -1.59774,-1.02255 -4.92102,-1.02255 h -4.47365 v 9.394672 z m 0.89473,17.702885 q 7.73303,0 7.73303,-5.624021 0,-2.748101 -1.91728,-3.898469 -1.91728,-1.214278 -5.81575,-1.214278 H 197.1128 V 86.291515 Z M 169.69371,51.908294 h 9.39467 v 41.668885 h -9.39467 z"
         style="font-style:normal;font-variant:normal;font-weight:bold;font-stretch:normal;font-size:63.90933228px;font-family:'Source Sans Pro';-inkscape-font-specification:'Source Sans Pro, Bold';font-variant-ligatures:normal;font-variant-caps:small-caps;font-variant-numeric:normal;font-feature-settings:normal;text-align:start;letter-spacing:-1.19831216px;writing-mode:lr-tb;text-anchor:start;display:inline;stroke-width:3.57557487"
         id="path867" />
    </g>
    <g
       id="text9406"
       style="font-style:normal;font-variant:normal;font-weight:normal;font-stretch:normal;font-size:26.97345924px;line-height:1.25;font-family:'Source Sans Pro';-inkscape-font-specification:'Source Sans Pro, Normal';font-variant-ligatures:normal;font-variant-caps:all-small-caps;font-variant-numeric:normal;font-feature-settings:normal;text-align:start;letter-spacing:-0.86698246px;word-spacing:0px;writing-mode:lr-tb;text-anchor:start;display:inline;fill-opacity:1;stroke:none;stroke-width:1.44497061"
       transform="scale(0.83487486,1.1977843)"
       aria-label="Geodatenmanagement">
      <path
         d="m 406.37937,111.94399 h -4.42364 v -1.86117 h 11.08609 v 1.86117 h -4.42365 v 12.11109 h -2.2388 z m -17.68908,-1.86117 h 2.26577 l 5.15193,8.25388 1.61841,2.99406 h 0.10789 q -0.0809,-1.05197 -0.18881,-2.29275 -0.10789,-1.26775 -0.10789,-2.40063 v -6.55456 h 2.07695 v 13.97226 h -2.23879 l -5.17891,-8.25388 -1.61841,-2.99406 h -0.10789 q 0.0809,1.10592 0.18881,2.31972 0.1079,1.18683 0.1079,2.31972 v 6.6085 h -2.07696 z m -11.93487,0 h 8.79334 v 1.78025 h -6.55455 v 4.04602 h 5.55654 v 1.69933 h -5.55654 v 4.66641 h 6.82429 v 1.78025 h -9.06308 z m -16.57094,0 h 2.50853 l 2.75129,7.121 0.99802,2.77826 h 0.10789 l 1.025,-2.77826 2.69734,-7.121 h 2.50853 v 13.97226 h -2.02301 v -6.90521 q 0,-0.48552 0.027,-1.05196 0.027,-0.56645 0.0539,-1.13289 0.027,-0.59342 0.0539,-1.15986 0.0539,-0.59341 0.10789,-1.07894 h -0.10789 l -1.2138,3.1559 -2.67038,6.82428 h -1.07894 l -2.67037,-6.82428 -1.2138,-3.1559 h -0.1079 q 0.027,0.48553 0.0809,1.05197 0.0539,0.56644 0.0809,1.15986 0.054,0.59341 0.0809,1.15986 0.027,0.56644 0.027,1.05196 v 6.90521 h -2.02301 z m -11.93486,0 h 8.79335 v 1.78025 h -6.55456 v 4.04602 h 5.55654 v 1.69933 h -5.55654 v 4.66641 h 6.82429 v 1.78025 h -9.06308 z m -8.08358,14.29594 q -1.51051,0 -2.77826,-0.48552 -1.24078,-0.48553 -2.15788,-1.40262 -0.9171,-0.94408 -1.42959,-2.29275 -0.5125,-1.34867 -0.5125,-3.10195 0,-1.7263 0.5125,-3.07497 0.53947,-1.37565 1.48354,-2.31972 0.94407,-0.94407 2.2388,-1.42959 1.29472,-0.5125 2.80524,-0.5125 1.53748,0 2.58945,0.56645 1.05196,0.53947 1.75327,1.18683 l -1.24078,1.37564 q -0.56644,-0.53946 -1.29472,-0.89012 -0.70131,-0.35065 -1.78025,-0.35065 -2.18485,0 -3.47958,1.42959 -1.29472,1.42959 -1.29472,4.01904 0,2.53551 1.2138,3.99208 1.21381,1.42959 3.5605,1.42959 0.78223,0 1.42959,-0.18881 0.64737,-0.18882 1.07894,-0.56645 v -3.42563 h -3.02103 v -1.64538 h 5.07101 v 6.096 q -0.78223,0.70131 -1.99603,1.15986 -1.21381,0.43158 -2.7513,0.43158 z m -11.69464,-5.93416 -0.64736,-1.99604 q -0.37763,-1.15986 -0.70131,-2.26577 -0.32369,-1.13288 -0.70131,-2.29274 h -0.1079 q -0.37763,1.18683 -0.70131,2.29274 -0.32368,1.10591 -0.70131,2.26577 l -0.64736,1.99604 z m 0.53947,1.67235 h -5.31377 l -1.29473,3.93813 h -2.26577 l 4.99009,-13.97226 h 2.5355 l 5.01707,13.97226 h -2.37367 z m -21.46535,-10.03413 h 2.26577 l 5.15193,8.25388 1.6184,2.99406 h 0.1079 q -0.0809,-1.05197 -0.18882,-2.29275 -0.10789,-1.26775 -0.10789,-2.40063 v -6.55456 h 2.07696 v 13.97226 h -2.2388 l -5.1789,-8.25388 -1.61841,-2.99406 h -0.1079 q 0.0809,1.10592 0.18882,2.31972 0.10789,1.18683 0.10789,2.31972 v 6.6085 h -2.07695 z m -5.84141,8.36178 -0.64736,-1.99604 q -0.37763,-1.15986 -0.70131,-2.26577 -0.32368,-1.13288 -0.70131,-2.29274 h -0.1079 q -0.37762,1.18683 -0.70131,2.29274 -0.32368,1.10591 -0.70131,2.26577 l -0.64736,1.99604 z m 0.53947,1.67235 h -5.31377 l -1.29473,3.93813 h -2.26577 l 4.99009,-13.97226 h 2.53551 l 5.01706,13.97226 h -2.37366 z m -23.09852,-10.03413 h 2.50854 l 2.75129,7.121 0.99802,2.77826 h 0.10789 l 1.02499,-2.77826 2.69735,-7.121 h 2.50853 v 13.97226 h -2.02301 v -6.90521 q 0,-0.48552 0.027,-1.05196 0.027,-0.56645 0.0539,-1.13289 0.027,-0.59342 0.0539,-1.15986 0.0539,-0.59341 0.10789,-1.07894 h -0.10789 l -1.21381,3.1559 -2.67037,6.82428 h -1.07894 l -2.67037,-6.82428 -1.21381,-3.1559 h -0.10789 q 0.027,0.48553 0.0809,1.05197 0.0539,0.56644 0.0809,1.15986 0.0539,0.59341 0.0809,1.15986 0.027,0.56644 0.027,1.05196 v 6.90521 h -2.02301 z m -14.93777,0 h 2.26577 l 5.15193,8.25388 1.61841,2.99406 h 0.10789 q -0.0809,-1.05197 -0.18881,-2.29275 -0.1079,-1.26775 -0.1079,-2.40063 v -6.55456 h 2.07696 v 13.97226 h -2.2388 l -5.1789,-8.25388 -1.61841,-2.99406 h -0.10789 q 0.0809,1.10592 0.18881,2.31972 0.1079,1.18683 0.1079,2.31972 v 6.6085 h -2.07696 z m -11.93488,0 h 8.79335 v 1.78025 h -6.55455 v 4.04602 h 5.55653 v 1.69933 h -5.55653 v 4.66641 h 6.82429 v 1.78025 h -9.06309 z m -8.97285,1.86117 h -4.42364 v -1.86117 h 11.08609 v 1.86117 h -4.42365 v 12.11109 h -2.2388 z m -7.80245,6.50061 -0.64737,-1.99604 q -0.37763,-1.15986 -0.70131,-2.26577 -0.32368,-1.13288 -0.70131,-2.29274 h -0.10789 q -0.37763,1.18683 -0.70131,2.29274 -0.32368,1.10591 -0.70131,2.26577 l -0.64736,1.99604 z m 0.53947,1.67235 h -5.31378 l -1.29472,3.93813 h -2.26577 l 4.99009,-13.97226 h 2.5355 l 5.01707,13.97226 h -2.37367 z m -20.62244,-10.03413 h 3.85721 q 3.47957,0 5.36771,1.75328 1.91512,1.7263 1.91512,5.1789 0,3.47958 -1.88814,5.25983 -1.88814,1.78025 -5.2868,1.78025 h -3.9651 z m 3.91115,12.21898 q 2.50853,0 3.69537,-1.3217 1.2138,-1.34867 1.2138,-3.9651 0,-2.45458 -1.2138,-3.80325 -1.18684,-1.34868 -3.69537,-1.34868 h -1.67235 v 10.43873 z m -13.42473,2.07696 q -1.45657,0 -2.67038,-0.5125 -1.18683,-0.51249 -2.04998,-1.45656 -0.86315,-0.94408 -1.34867,-2.31972 -0.48552,-1.37565 -0.48552,-3.07498 0,-1.69932 0.48552,-3.048 0.48552,-1.34867 1.34867,-2.26577 0.86315,-0.94407 2.04998,-1.42959 1.21381,-0.5125 2.67038,-0.5125 1.42959,0 2.61642,0.5125 1.21381,0.48552 2.07696,1.42959 0.89012,0.9171 1.37564,2.26577 0.48553,1.34868 0.48553,3.048 0,1.69933 -0.48553,3.07498 -0.48552,1.37564 -1.37564,2.31972 -0.86315,0.94407 -2.07696,1.45656 -1.18683,0.5125 -2.61642,0.5125 z m 0,-1.88814 q 1.94209,0 3.07497,-1.45657 1.15986,-1.48354 1.15986,-4.01905 0,-2.5355 -1.15986,-3.93812 -1.13288,-1.42959 -3.07497,-1.42959 -1.94209,0 -3.10195,1.42959 -1.13289,1.40262 -1.13289,3.93812 0,2.53551 1.13289,4.01905 1.15986,1.45657 3.10195,1.45657 z m -17.20102,-12.4078 h 8.79334 v 1.78025 h -6.55455 v 4.04602 h 5.55654 v 1.69933 h -5.55654 v 4.66641 h 6.82429 v 1.78025 h -9.06308 z m -8.08357,14.29594 q -1.51052,0 -2.77827,-0.48552 -1.24078,-0.48553 -2.15788,-1.40262 -0.9171,-0.94408 -1.42959,-2.29275 -0.5125,-1.34867 -0.5125,-3.10195 0,-1.7263 0.5125,-3.07497 0.53947,-1.37565 1.48354,-2.31972 0.94407,-0.94407 2.2388,-1.42959 1.29472,-0.5125 2.80524,-0.5125 1.53748,0 2.58945,0.56645 1.05196,0.53947 1.75327,1.18683 l -1.24078,1.37564 q -0.56644,-0.53946 -1.29472,-0.89012 -0.70131,-0.35065 -1.78025,-0.35065 -2.18485,0 -3.47958,1.42959 -1.29472,1.42959 -1.29472,4.01904 0,2.53551 1.2138,3.99208 1.21381,1.42959 3.5605,1.42959 0.78223,0 1.42959,-0.18881 0.64737,-0.18882 1.07894,-0.56645 v -3.42563 h -3.02103 v -1.64538 h 5.07101 v 6.096 q -0.78223,0.70131 -1.99603,1.15986 -1.21381,0.43158 -2.75129,0.43158 z"
         style="font-style:normal;font-variant:normal;font-weight:normal;font-stretch:normal;font-size:26.97345924px;font-family:'Source Sans Pro';-inkscape-font-specification:'Source Sans Pro, Normal';font-variant-ligatures:normal;font-variant-caps:all-small-caps;font-variant-numeric:normal;font-feature-settings:normal;text-align:start;writing-mode:lr-tb;text-anchor:start;stroke-width:1.44497061"
         id="path905" />
    </g>
    <path
       id="rect9440"
       d="m 145,121.186 h 200 v 2.38801 H 145 Z"
       style="fill-opacity:1;fill-rule:nonzero;stroke-width:0.70904154" />
  </g>
  <g
     style="display:inline"
     id="layer3">
    <path
       d="m 86.744143,37.189453 c -2.479319,0.185751 -4.986071,0.761529 -7.228516,1.878906 -9.586599,4.618966 -11.103992,19.208675 -2.470703,25.548829 0.0018,0.0016 0.0041,0.0023 0.0059,0.0039 7.571583,6.778896 20.59189,2.944428 23.902336,-6.464844 4.09817,-9.554506 -3.971835,-20.931922 -14.195305,-20.966797 h -0.0059 z m 0.726562,-15.541015 h 0.002 c 6.128436,0.228698 12.202319,2.25023 17.105465,5.958984 l 0.002,0.002 h 0.002 c 10.50287,7.353958 14.94687,21.708639 10.9043,33.773437 C 106.16082,80.810823 96.578288,100.12463 86.734375,119.29492 79.544072,106.21761 73.162816,92.694417 66.398438,79.378906 l -0.002,-0.0059 C 61.971995,69.772542 54.972813,60.417337 56.478516,49.371094 v -0.0059 l 0.002,-0.0078 C 57.295231,33.787281 71.980832,20.972947 87.470703,21.648438 Z"
       style="color:#000000;font-style:normal;font-variant:normal;font-weight:normal;font-stretch:normal;font-size:medium;line-height:normal;font-family:sans-serif;font-variant-ligatures:normal;font-variant-position:normal;font-variant-caps:normal;font-variant-numeric:normal;font-variant-alternates:normal;font-feature-settings:normal;text-indent:0;text-align:start;text-decoration:none;text-decoration-line:none;text-decoration-style:solid;text-decoration-color:#000000;letter-spacing:normal;word-spacing:normal;text-transform:none;writing-mode:lr-tb;direction:ltr;text-orientation:mixed;dominant-baseline:auto;baseline-shift:baseline;text-anchor:start;white-space:normal;shape-padding:0;clip-rule:nonzero;display:inline;overflow:visible;visibility:visible;opacity:1;isolation:auto;mix-blend-mode:normal;color-interpolation:sRGB;color-interpolation-filters:linearRGB;solid-color:#000000;solid-opacity:1;vector-effect:none;fill:#000000;fill-opacity:0.50196078;fill-rule:evenodd;stroke:none;stroke-width:0.31999999;stroke-linecap:butt;stroke-linejoin:miter;stroke-miterlimit:4;stroke-dasharray:none;stroke-dashoffset:0;stroke-opacity:1;color-rendering:auto;image-rendering:auto;shape-rendering:auto;text-rendering:auto;enable-background:accumulate"
       id="path880" />
  </g>
</svg>
